<svg width="32" height="34" viewBox="0 0 32 34" fill="none" xmlns="http://www.w3.org/2000/svg">
<path d="M3.44971 10.7799V10.2799C3.17356 10.2799 2.94971 10.5038 2.94971 10.7799H3.44971ZM28.4497 10.7799H28.9497C28.9497 10.5038 28.7258 10.2799 28.4497 10.2799V10.7799ZM28.4497 29.6371V30.1371C28.7258 30.1371 28.9497 29.9132 28.9497 29.6371H28.4497ZM3.44971 29.6371H2.94971C2.94971 29.9132 3.17356 30.1371 3.44971 30.1371V29.6371ZM9.30685 5.63708C9.30685 5.36094 9.08299 5.13708 8.80685 5.13708C8.53071 5.13708 8.30685 5.36094 8.30685 5.63708H9.30685ZM23.5926 5.63708C23.5926 5.36094 23.3687 5.13708 23.0926 5.13708C22.8164 5.13708 22.5926 5.36094 22.5926 5.63708H23.5926ZM3.44971 11.2799H8.80685V10.2799H3.44971V11.2799ZM9.30685 10.7799V5.63708H8.30685V10.7799H9.30685ZM23.0926 11.2799H28.4497V10.2799H23.0926V11.2799ZM23.5926 10.7799V5.63708H22.5926V10.7799H23.5926ZM3.94971 16.7799V10.7799H2.94971V16.7799H3.94971ZM27.9497 10.7799V16.7799H28.9497V10.7799H27.9497ZM3.44971 17.2799H28.4497V16.2799H3.44971V17.2799ZM27.9497 16.7799V23.6371H28.9497V16.7799H27.9497ZM27.9497 23.6371V29.6371H28.9497V23.6371H27.9497ZM3.94971 29.6371V23.6371H2.94971V29.6371H3.94971ZM3.94971 23.6371V16.7799H2.94971V23.6371H3.94971ZM28.4497 23.1371H3.44971V24.1371H28.4497V23.1371ZM11.4854 29.1371H3.44971V30.1371H11.4854V29.1371ZM8.80685 11.2799H11.4854V10.2799H8.80685V11.2799ZM11.9854 29.6371V10.7799H10.9854V29.6371H11.9854ZM11.4854 11.2799H20.414V10.2799H11.4854V11.2799ZM20.414 11.2799H23.0926V10.2799H20.414V11.2799ZM28.4497 29.1371H20.414V30.1371H28.4497V29.1371ZM20.414 29.1371H11.4854V30.1371H20.414V29.1371ZM19.914 10.7799V29.6371H20.914V10.7799H19.914Z" fill="#101010"/>
</svg>
