<svg width="24" height="24" viewBox="0 0 24 24" fill="none" xmlns="http://www.w3.org/2000/svg">
<g clip-path="url(#clip0_1143_1006)">
<path d="M5.6243 12.3351L5.61678 12.3381C5.40289 12.4231 5.25044 12.4998 5.14758 12.5646C5.28573 12.6261 5.46131 12.6814 5.69153 12.7539C5.78237 12.7825 5.88172 12.8138 5.99063 12.8492C6.29013 12.9466 6.6378 13.051 6.95944 13.1317C7.29269 13.2152 7.55868 13.263 7.71221 13.2663C7.95595 13.2715 8.28672 13.1706 8.71973 12.8733L8.72301 12.871L8.72302 12.8711C10.3576 11.7677 11.5982 10.9362 12.4439 10.3772C12.8664 10.0979 13.1923 9.88535 13.4204 9.74049C13.5339 9.66836 13.6264 9.61092 13.6958 9.56983C13.73 9.54957 13.7631 9.53062 13.7924 9.51512C13.7928 9.51493 13.7933 9.51463 13.7941 9.51423C13.8069 9.5073 13.8756 9.47003 13.9538 9.4523C13.9551 9.452 13.9565 9.45167 13.958 9.45133C13.9955 9.44277 14.0893 9.42138 14.1943 9.4222C14.3105 9.42311 14.4886 9.45121 14.6451 9.59026L14.3129 9.96397L14.6451 9.59026C14.8034 9.73098 14.8497 9.90867 14.8645 10.0083C14.8793 10.1082 14.8745 10.2094 14.8555 10.2903L5.6243 12.3351ZM5.6243 12.3351L5.63173 12.3318C9.13063 10.8074 11.4595 9.80431 12.6222 9.32071C14.2903 8.6269 15.2859 8.22469 15.9193 7.99483C16.5614 7.76184 16.7795 7.72652 16.9153 7.72413C16.9179 7.72408 16.93 7.72418 16.9486 7.72613C16.9668 7.72803 16.9867 7.73124 17.0061 7.73587C17.0218 7.73962 17.0346 7.74371 17.0444 7.7475C17.0459 7.75392 17.0476 7.76207 17.0494 7.77304C17.0537 7.79776 17.0609 7.8554 17.0651 7.9267C17.0693 7.99853 17.0692 8.0655 17.0646 8.11373C16.8864 9.98575 16.1092 14.5696 15.7113 16.6966C15.6348 17.1057 15.5304 17.3227 15.4502 17.4294C15.383 17.5188 15.3429 17.5206 15.3374 17.5208C15.3372 17.5209 15.337 17.5209 15.3369 17.5209C15.136 17.5394 14.9374 17.4789 14.6773 17.3261C14.5458 17.2489 14.41 17.155 14.2551 17.0449C14.2304 17.0274 14.2052 17.0094 14.1794 16.9911C14.0488 16.8979 13.9053 16.7956 13.7558 16.6976C13.2317 16.354 12.8215 16.0753 12.4125 15.7968L12.3579 15.7596C11.9669 15.4933 11.5721 15.2245 11.0789 14.8994C10.8088 14.7214 10.7183 14.6054 10.6926 14.5561C10.6894 14.55 10.6872 14.5492 10.6868 14.5479C10.6864 14.5463 10.6882 14.5441 10.6934 14.5324C10.718 14.4763 10.7826 14.3879 10.927 14.2409C10.9876 14.1792 11.0533 14.1159 11.1272 14.0446C11.1366 14.0355 11.1461 14.0264 11.1558 14.017C11.2394 13.9364 11.331 13.8474 11.4224 13.7526C11.4218 13.7531 11.4252 13.7496 11.4354 13.7398L11.4722 13.7045C11.5029 13.6753 11.5439 13.6368 11.5941 13.5899C11.6846 13.5052 11.8026 13.3956 11.9403 13.2676L11.9855 13.2255C12.2991 12.934 12.7026 12.5585 13.1027 12.1806C13.5021 11.8034 13.9016 11.4206 14.2062 11.1146C14.3578 10.9623 14.4909 10.8241 14.5901 10.7128C14.6391 10.6578 14.6858 10.6028 14.7238 10.552C14.7427 10.5268 14.7644 10.4962 14.7844 10.4626C14.7994 10.4373 14.8359 10.374 14.8555 10.2903L14.3687 10.1761C14.3603 10.212 14.2915 10.2988 14.1791 10.422C14.1819 10.4221 14.1843 10.4222 14.1865 10.4222C14.1905 10.4222 14.194 10.4221 14.1968 10.422C14.2537 10.406 14.2877 10.3844 14.2597 10.3993C14.251 10.4038 14.2338 10.4134 14.2054 10.4303C14.1836 10.4431 14.1579 10.4587 14.1281 10.477M5.6243 12.3351L14.1281 10.477M14.1281 10.477C13.6 11.0418 12.3309 12.2217 11.5992 12.9019C11.3096 13.1712 11.1042 13.3621 11.0622 13.4058C10.9681 13.5035 10.8722 13.5959 10.7801 13.6847C10.2109 14.2335 9.78403 14.645 10.8037 15.3169C11.2938 15.6398 11.6859 15.9069 12.0771 16.1733C12.5043 16.4642 12.9304 16.7544 13.4817 17.1158C13.6222 17.2079 13.7563 17.3035 13.887 17.3967C14.3842 17.7511 14.8309 18.0696 15.3827 18.0188C15.7034 17.9893 16.0346 17.6877 16.2028 16.7885C16.6003 14.6633 17.3817 10.0586 17.5623 8.1611C17.5782 7.99485 17.5583 7.78209 17.5423 7.6887L14.1281 10.477ZM5.01165 12.6716C5.01161 12.6716 5.01202 12.671 5.01299 12.6698C5.01218 12.671 5.01169 12.6716 5.01165 12.6716Z" fill="#154385" stroke="#154385"/>
<path d="M0.25 11.52C0.25 8.79763 0.250531 6.78101 0.458654 5.23302C0.66581 3.69222 1.0745 2.65318 1.86384 1.86384C2.65318 1.0745 3.69222 0.66581 5.23302 0.458654C6.78101 0.250531 8.79763 0.25 11.52 0.25H12.48C15.2024 0.25 17.219 0.250531 18.767 0.458654C20.3078 0.66581 21.3468 1.0745 22.1362 1.86384C22.9255 2.65318 23.3342 3.69221 23.5413 5.23302C23.7495 6.78101 23.75 8.79763 23.75 11.52V12.48C23.75 15.2024 23.7495 17.219 23.5413 18.767C23.3342 20.3078 22.9255 21.3468 22.1362 22.1362C21.3468 22.9255 20.3078 23.3342 18.767 23.5413C17.219 23.7495 15.2024 23.75 12.48 23.75H11.52C8.79763 23.75 6.78101 23.7495 5.23302 23.5413C3.69221 23.3342 2.65318 22.9255 1.86384 22.1362C1.0745 21.3468 0.66581 20.3078 0.458654 18.767C0.250531 17.219 0.25 15.2024 0.25 12.48V11.52Z" stroke="#154385" stroke-width="0.5"/>
</g>
<defs>
<clipPath id="clip0_1143_1006">
<rect width="24" height="24" fill="white"/>
</clipPath>
</defs>
</svg>
