<svg width="24" height="24" viewBox="0 0 24 24" fill="none" xmlns="http://www.w3.org/2000/svg">
<path d="M0.25 11.52C0.25 8.79763 0.250531 6.78101 0.458654 5.23302C0.66581 3.69222 1.0745 2.65318 1.86384 1.86384C2.65318 1.0745 3.69222 0.66581 5.23302 0.458654C6.78101 0.250531 8.79763 0.25 11.52 0.25H12.48C15.2024 0.25 17.219 0.250531 18.767 0.458654C20.3078 0.66581 21.3468 1.0745 22.1362 1.86384C22.9255 2.65318 23.3342 3.69221 23.5413 5.23302C23.7495 6.78101 23.75 8.79763 23.75 11.52V12.48C23.75 15.2024 23.7495 17.219 23.5413 18.767C23.3342 20.3078 22.9255 21.3468 22.1362 22.1362C21.3468 22.9255 20.3078 23.3342 18.767 23.5413C17.219 23.7495 15.2024 23.75 12.48 23.75H11.52C8.79763 23.75 6.78101 23.7495 5.23302 23.5413C3.69221 23.3342 2.65318 22.9255 1.86384 22.1362C1.0745 21.3468 0.66581 20.3078 0.458654 18.767C0.250531 17.219 0.25 15.2024 0.25 12.48V11.52Z" stroke="#154385" stroke-width="0.5"/>
<path d="M12.6252 17C7.84193 17 5.11368 13.6216 5 8H7.396C7.4747 12.1261 9.24106 13.8739 10.6402 14.2342V8H12.8964V11.5586C14.278 11.4054 15.7294 9.78378 16.2191 8H18.4752C18.0992 10.1982 16.5252 11.8198 15.4059 12.4865C16.5252 13.027 18.3179 14.4414 19 17H16.5165C15.983 15.2883 14.654 13.964 12.8964 13.7838V17H12.6252Z" fill="#154385"/>
</svg>
