<svg width="24" height="25" viewBox="0 0 24 25" fill="none" xmlns="http://www.w3.org/2000/svg">
<path d="M0.25 12.02C0.25 9.29763 0.250531 7.28101 0.458654 5.73302C0.66581 4.19222 1.0745 3.15318 1.86384 2.36384C2.65318 1.5745 3.69222 1.16581 5.23302 0.958654C6.78101 0.750531 8.79763 0.75 11.52 0.75H12.48C15.2024 0.75 17.219 0.750531 18.767 0.958654C20.3078 1.16581 21.3468 1.5745 22.1362 2.36384C22.9255 3.15318 23.3342 4.19221 23.5413 5.73302C23.7495 7.28101 23.75 9.29763 23.75 12.02V12.98C23.75 15.7024 23.7495 17.719 23.5413 19.267C23.3342 20.8078 22.9255 21.8468 22.1362 22.6362C21.3468 23.4255 20.3078 23.8342 18.767 24.0413C17.219 24.2495 15.2024 24.25 12.48 24.25H11.52C8.79763 24.25 6.78101 24.2495 5.23302 24.0413C3.69221 23.8342 2.65318 23.4255 1.86384 22.6362C1.0745 21.8468 0.66581 20.8078 0.458654 19.267C0.250531 17.719 0.25 15.7024 0.25 12.98V12.02Z" stroke="#154385" stroke-width="0.5"/>
<path d="M5.12695 19.772H18.8735" stroke="#154385" stroke-linecap="round"/>
<path d="M6.10889 10.199C6.10889 9.64669 6.5566 9.19897 7.10889 9.19897H8.10205C8.65434 9.19897 9.10205 9.64669 9.10205 10.199V18.104H6.10889V10.199Z" fill="#154385"/>
<path d="M10.5034 14.1672C10.5034 13.615 10.9511 13.1672 11.5034 13.1672H12.4966C13.0489 13.1672 13.4966 13.615 13.4966 14.1672V18.104H10.5034V14.1672Z" fill="#154385"/>
<path d="M14.8979 6.11816C14.8979 5.56588 15.3457 5.11816 15.8979 5.11816H16.8911C17.4434 5.11816 17.8911 5.56588 17.8911 6.11816V18.104H14.8979V6.11816Z" fill="#154385"/>
</svg>
